<svg xmlns="http://www.w3.org/2000/svg" width="198" height="197" viewBox="0 0 198 197" fill="none">
  <mask id="mask0_307_110" style="mask-type:luminance" maskUnits="userSpaceOnUse" x="0" y="0" width="198" height="197">
    <path d="M0.700439 84.8016L84.8417 0.66036L197.026 112.844L112.884 196.986L0.700439 84.8016Z" fill="white"/>
  </mask>
  <g mask="url(#mask0_307_110)">
    <mask id="mask1_307_110" style="mask-type:luminance" maskUnits="userSpaceOnUse" x="29" y="29" width="139" height="139">
      <path d="M139.626 57.7844C143.281 61.4393 146.646 65.3308 149.709 69.4459C152.773 73.5609 155.481 77.8205 157.848 82.238C160.201 86.6422 162.147 91.1122 163.698 95.6611C165.262 100.197 166.38 104.706 167.064 109.203C167.76 113.686 168.01 118.064 167.8 122.323C167.603 126.596 166.972 130.672 165.88 134.55C164.802 138.442 163.29 142.057 161.384 145.41C159.451 148.762 157.151 151.773 154.469 154.455C151.774 157.15 148.763 159.451 145.424 161.37C142.058 163.29 138.456 164.788 134.564 165.866C130.686 166.958 126.61 167.589 122.337 167.786C118.078 167.996 113.7 167.747 109.203 167.063C104.72 166.366 100.211 165.249 95.6619 163.697C91.113 162.146 86.6561 160.187 82.2387 157.847C77.8213 155.48 73.5616 152.772 69.4466 149.709C65.3316 146.645 61.44 143.28 57.7851 139.625C54.1171 135.957 50.7515 132.065 47.6882 127.95C44.6249 123.835 41.9166 119.576 39.5502 115.158C37.21 110.741 35.2511 106.284 33.6997 101.735C32.1483 97.1862 31.0308 92.6767 30.3341 88.1936C29.6504 83.6973 29.4006 79.3193 29.611 75.0597C29.8082 70.7869 30.4392 66.7113 31.5304 62.8329C32.6085 58.9413 34.1073 55.339 36.0267 51.9734C37.9462 48.634 40.2469 45.6234 42.9421 42.9282C45.6241 40.2462 48.6348 37.9455 51.9873 36.0128C55.3398 34.1065 58.9552 32.5946 62.8468 31.5165C66.7252 30.4253 70.8007 29.7943 75.0735 29.5971C79.3332 29.3867 83.7112 29.6365 88.1943 30.3333C92.6906 31.017 97.2001 32.1345 101.736 33.699C106.285 35.2503 110.755 37.1961 115.159 39.5494C119.576 41.9159 123.836 44.6242 127.951 47.6874C132.066 50.7507 135.958 54.1164 139.626 57.7844Z" fill="white"/>
    </mask>
    <g mask="url(#mask1_307_110)">
      <path d="M2.01526 83.855L113.542 195.382L195.382 113.541L83.8558 2.01451L2.01526 83.855Z" fill="url(#paint0_linear_307_110)"/>
    </g>
  </g>
  <defs>
    <linearGradient id="paint0_linear_307_110" x1="42.9355" y1="42.9348" x2="154.462" y2="154.461" gradientUnits="userSpaceOnUse">
      <stop stop-color="#63F09C"/>
      <stop offset="1" stop-color="#12A966"/>
    </linearGradient>
  </defs>
</svg>