<svg xmlns="http://www.w3.org/2000/svg" width="139" height="221" viewBox="0 0 139 221" fill="none">
  <mask id="mask0_307_128" style="mask-type:luminance" maskUnits="userSpaceOnUse" x="0" y="0" width="260" height="260">
    <path d="M0.399658 118.382L118.197 0.584001L259.555 141.941L141.757 259.739L0.399658 118.382Z" fill="white"/>
  </mask>
  <g mask="url(#mask0_307_128)">
    <mask id="mask1_307_128" style="mask-type:luminance" maskUnits="userSpaceOnUse" x="60" y="24" width="144" height="212">
      <path d="M75.0486 176.597C55.236 135.065 51.4365 56.6431 92.9681 29.6785C144.347 6.40818 174.467 65.8987 194.293 107.417C213.014 149.724 201.984 210.845 162.74 229.475C123.482 248.117 94.8613 218.102 75.0486 176.597Z" fill="white"/>
    </mask>
    <g mask="url(#mask1_307_128)">
      <path d="M-8.27759 116.357L144.097 268.732L275.384 137.445L123.009 -14.9296L-8.27759 116.357Z" fill="url(#paint0_linear_307_128)"/>
    </g>
  </g>
  <defs>
    <linearGradient id="paint0_linear_307_128" x1="57.3658" y1="50.7138" x2="227.835" y2="221.183" gradientUnits="userSpaceOnUse">
      <stop stop-color="#FBC53D"/>
      <stop offset="1" stop-color="#ED8827"/>
    </linearGradient>
  </defs>
</svg>